<svg width="172" height="49" viewBox="0 0 172 49" fill="none" xmlns="http://www.w3.org/2000/svg">
<path fill-rule="evenodd" clip-rule="evenodd" d="M3.89419 14.528V34.4162L13.4245 40.0249V44.5142L0.00911989 36.6483H0V12.0633L17.2594 2.27541L17.2001 2.24121L21.051 0L25.7819 2.82717V2.97308V10.6087L30.506 13.3834H30.5585V13.4176L35.3145 16.2106V20.709L30.5585 17.916V35.2529L26.6711 37.7176V15.6315L21.8969 12.8317H21.8877V5.02278L21.0875 4.53943L3.89419 14.528ZM41.3792 11.9265H41.3884V36.6414L21.2334 48.3445V48.3537L15.554 45.0454V22.7063L12.7268 29.2384L10.0045 22.9388V35.0113L6.11033 32.8225V15.7432C7.60143 14.9156 9.24757 14.1586 10.4195 13.5727L12.9708 20.9233L15.5563 10.6087L19.4482 8.17826V42.8179L21.2311 43.853L37.4919 34.4162V14.1495L27.9616 8.54078V4.04923L41.3792 11.9265Z" fill="white"/>
<path d="M52.7514 21.0943V1.42265H58.9894L62.6852 14.8403L66.3309 1.42265H72.5963V21.0965H68.7363L68.7272 5.61096L64.6688 21.0965H60.6629L56.6205 5.60868L56.6023 21.0943H52.7514ZM95.3208 21.0943H90.8224L89.0463 16.6141H80.7814L79.076 21.0943H74.6642L82.6601 1.42037H87.0627L95.3208 21.0943ZM87.6943 13.2876L84.8329 6.01451L82.049 13.2876H87.6943ZM96.4402 14.7172L100.499 14.3296C100.74 15.6314 101.23 16.5776 101.971 17.1818C102.722 17.7929 103.72 18.0961 104.979 18.0961C106.315 18.0961 107.323 17.8293 107.995 17.2867C108.668 16.7441 109.012 16.1148 109.012 15.392C109.012 14.9269 108.866 14.5302 108.581 14.2019C108.305 13.8736 107.806 13.5909 107.09 13.3583C106.607 13.1941 105.505 12.9092 103.782 12.4965C101.559 11.963 100.008 11.3155 99.1101 10.5403C97.8424 9.45499 97.2154 8.13717 97.2154 6.56855C97.2154 5.56992 97.5164 4.63057 98.1023 3.7505C98.6974 2.87955 99.5501 2.21608 100.67 1.76009C101.789 1.29497 103.125 1.07153 104.712 1.07153C107.288 1.07153 109.226 1.61417 110.528 2.70855C111.83 3.80294 112.509 5.25984 112.58 7.0861L108.41 7.2229C108.23 6.20603 107.849 5.47416 107.272 5.03413C106.696 4.58497 105.815 4.36153 104.662 4.36153C103.465 4.36153 102.525 4.60321 101.844 5.07745C101.413 5.38752 101.189 5.79336 101.189 6.30863C101.189 6.77375 101.397 7.17046 101.81 7.49878C102.327 7.92969 103.602 8.36973 105.619 8.82572C107.635 9.27488 109.126 9.75595 110.093 10.2393C111.066 10.7295 111.816 11.393 112.368 12.2388C112.911 13.0824 113.187 14.1335 113.187 15.3761C113.187 16.4956 112.858 17.5557 112.204 18.5384C111.55 19.5211 110.619 20.2529 109.42 20.7363C108.223 21.2105 106.732 21.4522 104.94 21.4522C102.339 21.4522 100.339 20.8845 98.9414 19.7286C97.5437 18.5794 96.7161 16.9151 96.4402 14.7172ZM121.354 21.0943V4.74685H115.252V1.42265H131.591V4.74913H125.524V21.0965H121.354V21.0943ZM134.288 21.0943V1.42265H149.532V4.74913H138.458V9.11756H148.757V12.444H138.458V17.7701H149.935V21.0965H134.288V21.0943ZM153.478 21.0943V1.42265H162.233C164.431 1.42265 166.034 1.60277 167.033 1.95616C168.031 2.30956 168.834 2.93883 169.429 3.83486C170.033 4.74001 170.334 5.77284 170.334 6.9379C170.334 8.41989 169.878 9.63511 168.973 10.5927C168.068 11.5571 166.716 12.1613 164.915 12.4098C165.811 12.9092 166.552 13.4609 167.129 14.0651C167.714 14.6602 168.499 15.7272 169.491 17.2525L171.999 21.0965H167.026L164.044 16.7942C162.974 15.2689 162.243 14.3113 161.846 13.9169C161.449 13.5225 161.036 13.2443 160.596 13.0984C160.147 12.9525 159.45 12.8841 158.494 12.8841H157.651V21.0965H153.478V21.0943ZM157.648 9.74683H160.724C162.715 9.74683 163.955 9.66931 164.456 9.50515C164.958 9.34099 165.343 9.06512 165.619 8.6684C165.904 8.28081 166.041 7.78149 166.041 7.19554C166.041 6.53207 165.861 5.99856 165.489 5.5836C165.118 5.17776 164.593 4.92013 163.921 4.81753C163.585 4.77421 162.575 4.74913 160.888 4.74913H157.648V9.74683ZM59.3952 47.9979V30.6428H52.6055V28.3332H68.9187V30.6428H62.1289V47.9979H59.3952ZM67.3409 47.9979L75.2433 28.3332H78.2324L86.6158 47.9979H83.5219L81.1348 42.0358H72.4663L70.2251 47.9979H67.3409ZM73.2689 39.9246H80.2843L78.1389 34.4709C77.4937 32.8156 77.0012 31.4453 76.6569 30.3692C76.381 31.6528 76.0026 32.9114 75.5283 34.1517L73.2689 39.9246ZM87.9519 38.4243C87.9519 35.1663 88.8662 32.6172 90.7015 30.7727C92.5369 28.9191 94.9058 28.0071 97.8105 28.0071C99.7143 28.0071 101.429 28.4381 102.954 29.309C104.479 30.1708 105.642 31.3769 106.445 32.9273C107.245 34.4777 107.651 36.2356 107.651 38.2009C107.651 40.1913 107.229 41.9743 106.383 43.5429C105.54 45.1206 104.349 46.3085 102.806 47.1201C101.256 47.9295 99.582 48.3263 97.7991 48.3263C95.852 48.3263 94.1283 47.8771 92.5939 46.9902C91.0686 46.0942 89.915 44.8789 89.1215 43.3286C88.3395 41.785 87.9519 40.1571 87.9519 38.4243ZM90.7699 38.4768C90.7699 40.8388 91.4334 42.7084 92.7695 44.0604C94.0964 45.4216 95.7676 46.1033 97.7854 46.1033C99.8374 46.1033 101.518 45.4216 102.852 44.0445C104.169 42.6742 104.833 40.718 104.833 38.1941C104.833 36.6004 104.548 35.205 103.98 34.0149C103.419 32.8247 102.592 31.8945 101.497 31.2401C100.403 30.5858 99.1876 30.2575 97.8265 30.2575C95.8953 30.2575 94.2423 30.8867 92.8538 32.1521C91.4608 33.4175 90.7699 35.5196 90.7699 38.4768Z" fill="white"/>
<rect x="114.224" y="27.8157" width="57.6833" height="20.5198" fill="#89C249"/>
<path d="M123.093 43.0768C121.601 43.0768 120.357 42.6017 119.362 41.6514C118.367 40.6913 117.87 39.4589 117.87 37.9543C117.87 36.4497 118.367 35.2223 119.362 34.272C120.357 33.3119 121.601 32.8318 123.093 32.8318C124.824 32.8318 126.157 33.5742 127.092 35.059L125.6 35.8162C125.351 35.3906 124.998 35.0441 124.541 34.7769C124.093 34.5096 123.61 34.376 123.093 34.376C122.108 34.376 121.287 34.7125 120.631 35.3856C119.984 36.0587 119.66 36.915 119.66 37.9543C119.66 38.9937 119.984 39.8499 120.631 40.523C121.287 41.1961 122.108 41.5326 123.093 41.5326C123.62 41.5326 124.108 41.399 124.555 41.1317C125.003 40.8645 125.351 40.518 125.6 40.0924L127.092 40.8496C126.137 42.3344 124.804 43.0768 123.093 43.0768Z" fill="white"/>
<path d="M137.371 42.8986H135.386L134.655 40.9981H130.089L129.357 42.8986H127.372L131.282 32.9951H133.461L137.371 42.8986ZM134.163 39.4688L132.372 34.7472L130.581 39.4688H134.163Z" fill="white"/>
<path d="M146.159 42.8986H144.144L141.936 39.2015H140.205V42.8986H138.458V32.9951H142.831C143.806 32.9951 144.592 33.2822 145.189 33.8563C145.786 34.4304 146.085 35.1778 146.085 36.0983C146.085 36.9298 145.856 37.598 145.398 38.1028C144.94 38.5977 144.383 38.8996 143.727 39.0085L146.159 42.8986ZM142.592 37.6722C143.09 37.6722 143.498 37.5287 143.816 37.2416C144.134 36.9545 144.294 36.5735 144.294 36.0983C144.294 35.6232 144.134 35.2421 143.816 34.955C143.498 34.668 143.09 34.5244 142.592 34.5244H140.205V37.6722H142.592Z" fill="white"/>
<path d="M152.605 43.0917C151.133 43.0917 149.894 42.6165 148.889 41.6663C147.884 40.716 147.382 39.4787 147.382 37.9543C147.382 36.4299 147.884 35.1975 148.889 34.2572C149.894 33.3069 151.133 32.8318 152.605 32.8318C154.316 32.8318 155.655 33.5197 156.62 34.8956L155.187 35.6974C154.908 35.3114 154.54 34.9946 154.083 34.7472C153.635 34.4997 153.142 34.376 152.605 34.376C151.62 34.376 150.799 34.7125 150.143 35.3856C149.496 36.0587 149.173 36.915 149.173 37.9543C149.173 38.9937 149.496 39.8548 150.143 40.5378C150.799 41.2109 151.62 41.5475 152.605 41.5475C153.073 41.5475 153.515 41.4584 153.933 41.2802C154.361 41.1021 154.704 40.8942 154.963 40.6566V39.1124H151.993V37.5831H156.709V41.2951C155.625 42.4928 154.257 43.0917 152.605 43.0917Z" fill="white"/>
<path d="M166.824 41.6366C165.869 42.5967 164.65 43.0768 163.168 43.0768C161.686 43.0768 160.467 42.5967 159.512 41.6366C158.557 40.6665 158.079 39.4391 158.079 37.9543C158.079 36.4695 158.557 35.247 159.512 34.2869C160.467 33.3168 161.686 32.8318 163.168 32.8318C164.65 32.8318 165.869 33.3168 166.824 34.2869C167.779 35.247 168.257 36.4695 168.257 37.9543C168.257 39.4391 167.779 40.6665 166.824 41.6366ZM163.168 41.5326C164.153 41.5326 164.949 41.1961 165.556 40.523C166.163 39.84 166.466 38.9838 166.466 37.9543C166.466 36.915 166.163 36.0587 165.556 35.3856C164.949 34.7125 164.153 34.376 163.168 34.376C162.173 34.376 161.372 34.7125 160.765 35.3856C160.168 36.0587 159.87 36.915 159.87 37.9543C159.87 38.9937 160.168 39.8499 160.765 40.523C161.372 41.1961 162.173 41.5326 163.168 41.5326Z" fill="white"/>
</svg>
